<?xml version="1.0" encoding="UTF-8"?>
<svg xmlns="http://www.w3.org/2000/svg" xmlns:xlink="http://www.w3.org/1999/xlink" width="24px" height="24px" viewBox="0 0 24 24" version="1.1">
<g id="surface1">
<path style=" stroke:none;fill-rule:evenodd;fill:rgb(0%,0%,0%);fill-opacity:1;" d="M 21.121094 2.707031 C 19.949219 1.535156 18.050781 1.535156 16.878906 2.707031 L 7.292969 12.292969 C 7.164062 12.421875 7.074219 12.582031 7.03125 12.757812 L 6.03125 16.757812 C 5.945312 17.097656 6.042969 17.457031 6.292969 17.707031 C 6.542969 17.957031 6.902344 18.054688 7.242188 17.96875 L 11.242188 16.96875 C 11.417969 16.925781 11.578125 16.835938 11.707031 16.707031 L 21.292969 7.121094 C 22.464844 5.949219 22.464844 4.050781 21.292969 2.878906 Z M 18.292969 4.121094 C 18.683594 3.730469 19.316406 3.730469 19.707031 4.121094 L 19.878906 4.292969 C 20.269531 4.683594 20.269531 5.316406 19.878906 5.707031 L 18.863281 6.722656 L 17.308594 5.105469 Z M 15.890625 6.523438 L 17.449219 8.136719 L 10.488281 15.097656 L 8.375 15.625 L 8.902344 13.511719 Z M 4 8 C 4 7.449219 4.449219 7 5 7 L 10 7 C 10.550781 7 11 6.550781 11 6 C 11 5.449219 10.550781 5 10 5 L 5 5 C 3.34375 5 2 6.34375 2 8 L 2 19 C 2 20.65625 3.34375 22 5 22 L 16 22 C 17.65625 22 19 20.65625 19 19 L 19 14 C 19 13.449219 18.550781 13 18 13 C 17.449219 13 17 13.449219 17 14 L 17 19 C 17 19.550781 16.550781 20 16 20 L 5 20 C 4.449219 20 4 19.550781 4 19 Z M 4 8 "/>
</g>
</svg>
