<svg xmlns="http://www.w3.org/2000/svg" width="21" height="24">
    <path d="M0 6.75V5.11a2.128 2.128 0 0 1 .703-1.5C1.141 3.202 1.656 3 2.25 3H4.5v-.75c0-.625.219-1.156.656-1.594A2.17 2.17 0 0 1 6.75 0h7.5a2.17 2.17 0 0 1 1.594.656c.437.438.656.969.656 1.594V3h2.25c.594 0 1.11.203 1.547.61.437.406.672.906.703 1.5v1.64c0 .406-.148.758-.445 1.055a1.442 1.442 0 0 1-1.055.445V21c0 .844-.29 1.555-.867 2.133-.578.578-1.29.867-2.133.867h-12c-.844 0-1.555-.29-2.133-.867C1.79 22.555 1.5 21.843 1.5 21V8.25c-.406 0-.758-.148-1.055-.445A1.442 1.442 0 0 1 0 6.75Zm1.5 0h18v-1.5a.73.73 0 0 0-.21-.54.73.73 0 0 0-.54-.21H2.25a.73.73 0 0 0-.54.21.73.73 0 0 0-.21.54ZM3 21c0 .406.148.758.445 1.055.297.297.649.445 1.055.445h12c.406 0 .758-.148 1.055-.445.297-.297.445-.649.445-1.055V8.25H3Zm1.5-.75V10.5a.73.73 0 0 1 .21-.54.73.73 0 0 1 .54-.21h1.5a.73.73 0 0 1 .54.21c.14.142.21.321.21.54v9.75a.73.73 0 0 1-.21.54.73.73 0 0 1-.54.21h-1.5a.73.73 0 0 1-.54-.21.73.73 0 0 1-.21-.54Zm.75 0h1.5V10.5h-1.5ZM6 3h9v-.75a.73.73 0 0 0-.21-.54.73.73 0 0 0-.54-.21h-7.5a.73.73 0 0 0-.54.21.73.73 0 0 0-.21.54Zm3 17.25V10.5a.73.73 0 0 1 .21-.54.73.73 0 0 1 .54-.21h1.5a.73.73 0 0 1 .54.21c.14.142.21.321.21.54v9.75a.73.73 0 0 1-.21.54.73.73 0 0 1-.54.21h-1.5a.73.73 0 0 1-.54-.21.73.73 0 0 1-.21-.54Zm.75 0h1.5V10.5h-1.5Zm3.75 0V10.5a.73.73 0 0 1 .21-.54.73.73 0 0 1 .54-.21h1.5a.73.73 0 0 1 .54.21c.14.142.21.321.21.54v9.75a.73.73 0 0 1-.21.54.73.73 0 0 1-.54.21h-1.5a.73.73 0 0 1-.54-.21.73.73 0 0 1-.21-.54Zm.75 0h1.5V10.5h-1.5Zm0 0"
          style="stroke:none;fill-rule:nonzero;fill:#000;fill-opacity:1"/>
</svg>